#!OML:ASF F:\VICON\USERDATA\INSTALL\rory3\rory3.ASF
:FULLY-SPECIFIED
:DEGREES
458
root 0.879246 15.8385 35.0917 -0.982256 -1.30154 5.75494
lowerback 12.8808 -0.30502 -8.60722
upperback -4.19603 -1.84072 0.813346
thorax -11.6254 -0.201317 6.18706
lowerneck -10.6838 -5.1619 -4.39191
upperneck 21.0721 -6.97574 2.76602
head 8.57392 -3.37833 0.914146
rclavicle -1.9133e-014 -2.78299e-014
rhumerus -50.5065 -11.0606 -74.204
rradius 20.83
rwrist 4.96842
rhand -7.26835 18.9908
rfingers 7.12502
rthumb 18.6127 -10.1388
lclavicle -1.9133e-014 -2.78299e-014
lhumerus -35.6518 7.38982 82.9675
lradius 24.7422
lwrist 0.493845
lhand -5.00267 19.4088
lfingers 7.12502
lthumb 20.7908 48.3149
rfemur -28.8145 -2.42894 15.766
rtibia 69.3511
rfoot -5.69304 -5.06468
rtoes -0.528799
lfemur -6.30165 -12.621 -33.6314
ltibia 26.2381
lfoot -13.5315 7.30661
ltoes 21.1775
459
root 0.877266 15.822 35.1909 -0.960464 -1.38668 5.59925
lowerback 12.9879 -0.320551 -8.55631
upperback -4.16535 -1.85154 0.903568
thorax -11.6504 -0.20538 6.26456
lowerneck -10.3916 -5.11456 -4.50207
upperneck 20.7426 -6.94457 3.02166
head 8.42118 -3.35254 1.03141
rclavicle 7.85199e-015 -9.54166e-015
rhumerus -50.4644 -10.5596 -74.7591
rradius 21.4879
rwrist 4.03059
rhand -7.3161 18.8018
rfingers 7.12502
rthumb 18.5668 -10.3321
lclavicle 7.85199e-015 -9.54166e-015
lhumerus -35.3883 7.27585 83.079
lradius 25.0756
lwrist 0.746891
lhand -4.94265 19.4333
lfingers 7.12502
lthumb 20.8485 48.3331
rfemur -29.5852 -2.08241 16.068
rtibia 67.9395
rfoot -6.5567 -5.60768
rtoes -1.5816
lfemur -6.05231 -12.6294 -33.5882
ltibia 26.4805
lfoot -13.9709 7.54156
ltoes 19.9536
460
root 0.86557 15.8207 35.2868 -0.889616 -1.5887 5.01952
lowerback 13.2469 -0.277397 -8.26824
upperback -4.25238 -1.74125 1.16477
thorax -11.9214 -0.144026 6.38078
lowerneck -10.3137 -5.08589 -4.61834
upperneck 20.7447 -6.92992 3.21888
head 8.41871 -3.33638 1.11965
rclavicle -5.91384e-015 2.62396e-014
rhumerus -50.6002 -10.3844 -74.9186
rradius 22.0572
rwrist 3.5481
rhand -7.20329 18.6864
rfingers 7.12502
rthumb 18.6753 -10.4371
lclavicle -5.91384e-015 2.62396e-014
lhumerus -35.3727 6.86578 83.3742
lradius 25.6308
lwrist 1.26845
lhand -4.86437 19.3853
lfingers 7.12502
lthumb 20.9237 48.2768
rfemur -30.2488 -1.27673 16.9307
rtibia 66.2294
rfoot -7.67416 -6.44938
rtoes -0.443775
lfemur -5.85243 -12.6589 -32.9827
ltibia 26.6439
lfoot -14.5323 7.56886
ltoes 20.5426
461
root 0.854061 15.8189 35.3911 -0.94796 -1.50323 4.91018
lowerback 13.4746 -0.294235 -8.38071
upperback -4.2317 -1.79097 1.28573
thorax -12.0211 -0.147721 6.60077
lowerneck -10.9839 -5.143 -4.44396
upperneck 21.2703 -6.97855 2.9575
head 8.70578 -3.35921 0.976589
rclavicle -4.91992e-015 -1.74931e-014
rhumerus -50.6316 -10.0666 -75.2153
rradius 22.5678
rwrist 2.87826
rhand -7.26988 18.754
rfingers 7.12502
rthumb 18.6112 -10.3756
lclavicle -4.91992e-015 -1.74931e-014
lhumerus -35.3189 6.66692 83.6031
lradius 26.3816
lwrist 1.6452
lhand -4.70752 19.7107
lfingers 7.12502
lthumb 21.0744 48.5855
rfemur -30.5843 -0.698266 17.1565
rtibia 64.3951
rfoot -8.71539 -7.19109
rtoes 1.10354
lfemur -5.36497 -12.746 -32.9357
ltibia 26.6767
lfoot -15.0645 7.52767
ltoes 21.1948
462
root 0.856086 15.8063 35.494 -0.811116 -1.2999 5.18698
lowerback 13.4587 -0.357499 -8.6219
upperback -4.19737 -1.92456 1.22252
thorax -11.9465 -0.201049 6.696
lowerneck -10.7952 -5.19586 -4.59744
upperneck 20.8679 -7.08081 3.25965
head 8.55593 -3.39381 1.09928
rclavicle -1.31198e-014 -7.15625e-015
rhumerus -50.4504 -9.83144 -75.5761
rradius 22.8558
rwrist 2.17595
rhand -7.51911 19.0687
rfingers 7.12502
rthumb 18.3715 -10.0838
lclavicle -1.31198e-014 -7.15625e-015
lhumerus -35.0286 6.29271 83.8714
lradius 27.1963
lwrist 2.45448
lhand -4.43609 20.6882
lfingers 7.12502
lthumb 21.3351 49.5337
rfemur -31.1483 -0.510989 16.7833
rtibia 62.5317
rfoot -9.12661 -7.59925
rtoes 0.186673
lfemur -4.93659 -12.8936 -33.3344
ltibia 26.4986
lfoot -15.5025 7.4525
ltoes 21.2673
463
root 0.858502 15.797 35.5973 -0.66577 -1.29914 5.32977
lowerback 13.4419 -0.373286 -8.74435
upperback -4.2034 -1.96861 1.20828
thorax -11.934 -0.213838 6.75932
lowerneck -10.5739 -5.17619 -4.69636
upperneck 20.5236 -7.08312 3.50616
head 8.41212 -3.38341 1.20572
rclavicle 8.94531e-015 1.59028e-015
rhumerus -50.3962 -9.77904 -75.7139
rradius 23.2434
rwrist 1.89351
rhand -7.49426 19.2013
rfingers 7.12502
rthumb 18.3954 -9.94889
lclavicle 8.94531e-015 1.59028e-015
lhumerus -34.8299 6.20781 84.0088
lradius 27.4066
lwrist 2.30933
lhand -4.62876 19.8038
lfingers 7.12502
lthumb 21.1501 48.6702
rfemur -31.6479 -0.0588878 16.5331
rtibia 60.4946
rfoot -9.32927 -7.92711
rtoes -0.482646
lfemur -4.44484 -13.0128 -33.6029
ltibia 26.1676
lfoot -15.8336 7.5396
ltoes 20.2725
464
root 0.851262 15.7944 35.7072 -0.57128 -1.34777 5.23474
lowerback 13.3566 -0.342692 -8.75728
upperback -4.18771 -1.91497 1.25956
thorax -11.8729 -0.189177 6.80827
lowerneck -10.505 -5.17915 -4.70436
upperneck 20.3901 -7.11948 3.67462
head 8.3628 -3.38647 1.26175
rclavicle -1.49585e-014 1.27222e-014
rhumerus -50.4408 -9.7512 -75.9081
rradius 23.7427
rwrist 1.67472
rhand -7.51558 19.0497
rfingers 7.12502
rthumb 18.3749 -10.1024
lclavicle -1.49585e-014 1.27222e-014
lhumerus -34.738 5.8125 84.2444
lradius 27.6865
lwrist 2.10611
lhand -4.96303 19.0098
lfingers 7.12502
lthumb 20.8289 47.9118
rfemur -31.9676 0.681073 16.5684
rtibia 58.29
rfoot -9.61907 -8.40414
rtoes 0.469702
lfemur -3.80505 -12.9944 -33.5871
ltibia 25.746
lfoot -16.1273 7.65765
ltoes 19.2709
465
root 0.835873 15.7942 35.8082 -0.462562 -1.40573 5.02537
lowerback 13.3945 -0.293412 -8.73112
upperback -4.19443 -1.83847 1.34372
thorax -11.9156 -0.147994 6.87282
lowerneck -10.6283 -5.25233 -4.68108
upperneck 20.5126 -7.23265 3.70335
head 8.4321 -3.43242 1.25079
rclavicle -7.40473e-015 3.97569e-015
rhumerus -50.4255 -9.59718 -76.2132
rradius 24.1472
rwrist 1.22603
rhand -7.50921 19.1276
rfingers 7.12502
rthumb 18.381 -10.024
lclavicle -7.40473e-015 3.97569e-015
lhumerus -34.5175 5.31338 84.4912
lradius 27.9204
lwrist 2.43554
lhand -5.30943 18.5329
lfingers 7.12502
lthumb 20.4961 47.471
rfemur -32.2349 1.74031 16.7012
rtibia 55.909
rfoot -9.98715 -8.85488
rtoes 2.27899
lfemur -3.20468 -12.9826 -33.3747
ltibia 25.2151
lfoot -16.2314 7.81222
ltoes 19.0582
466
root 0.826643 15.7922 35.9112 -0.317096 -1.42642 5.15163
lowerback 13.4599 -0.24419 -8.94691
upperback -4.24871 -1.82222 1.33315
thorax -12.0187 -0.116292 6.98544
lowerneck -10.7041 -5.30187 -4.6792
upperneck 20.5275 -7.31241 3.76167
head 8.4569 -3.46272 1.25881
rclavicle -1.36167e-014 1.43125e-014
rhumerus -50.27 -9.49355 -76.4507
rradius 24.316
rwrist 0.874444
rhand -7.60794 19.1348
rfingers 7.12502
rthumb 18.286 -10.0257
lclavicle -1.36167e-014 1.43125e-014
lhumerus -34.2961 5.06022 84.6724
lradius 28.358
lwrist 3.01003
lhand -5.31086 18.855
lfingers 7.12502
lthumb 20.4947 47.7933
rfemur -32.5038 2.60524 16.3403
rtibia 53.5098
rfoot -9.82211 -9.09421
rtoes 3.76371
lfemur -2.5582 -13.0048 -33.5453
ltibia 24.5444
lfoot -16.3196 7.85564
ltoes 19.0328
467
root 0.826197 15.7912 36.0239 -0.177889 -1.34973 5.4797
lowerback 13.4342 -0.251855 -9.21343
upperback -4.33337 -1.89305 1.24862
thorax -12.0873 -0.126458 7.06008
lowerneck -10.8534 -5.35461 -4.52854
upperneck 20.7226 -7.36855 3.53569
head 8.53791 -3.49623 1.14712
rclavicle 2.88238e-015 -1.59028e-015
rhumerus -50.1767 -9.45698 -76.5555
rradius 24.3344
rwrist 0.715805
rhand -7.76861 19.1635
rfingers 7.12502
rthumb 18.1315 -10.0114
lclavicle 2.88238e-015 -1.59028e-015
lhumerus -34.2734 4.85809 84.8321
lradius 28.7737
lwrist 3.16969
lhand -5.37952 18.7145
lfingers 7.12502
lthumb 20.4287 47.6599
rfemur -32.6545 3.22812 15.6897
rtibia 51.1009
rfoot -9.43635 -9.36518
rtoes 3.70727
lfemur -1.75267 -13.0809 -34.0004
ltibia 23.7499
lfoot -16.462 7.89511
ltoes 18.7764
468
root 0.826579 15.7857 36.1404 -0.0767168 -1.32569 5.72007
lowerback 13.2728 -0.242509 -9.36115
upperback -4.31073 -1.89968 1.15984
thorax -11.9636 -0.131319 7.03833
lowerneck -10.0734 -5.33967 -4.87391
upperneck 19.8863 -7.41206 4.1668
head 8.15486 -3.50059 1.43503
rclavicle 2.51711e-014 7.15625e-015
rhumerus -50.0137 -9.34059 -76.8261
rradius 24.4687
rwrist 0.384036
rhand -8.04975 19.1618
rfingers 7.12502
rthumb 17.861 -10.038
lclavicle 2.51711e-014 7.15625e-015
lhumerus -34.1424 4.53019 85.0312
lradius 29.1858
lwrist 3.18811
lhand -5.53003 18.7134
lfingers 7.12502
lthumb 20.2841 47.6742
rfemur -32.6482 3.92221 15.0846
rtibia 48.6198
rfoot -9.32107 -9.35537
rtoes 4.04296
lfemur -0.825452 -13.1563 -34.4004
ltibia 22.8541
lfoot -16.5663 8.02474
ltoes 18.5788
469
root 0.827664 15.7819 36.2518 0.128407 -1.38315 5.95891
lowerback 12.9936 -0.203482 -9.49128
upperback -4.26706 -1.84914 1.06654
thorax -11.7565 -0.116763 6.98363
lowerneck -10.8035 -5.46786 -4.60642
upperneck 20.4507 -7.55722 3.79594
head 8.45904 -3.56786 1.22853
rclavicle 2.41026e-014 -1.35174e-014
rhumerus -49.8648 -9.52292 -76.9118
rradius 24.77
rwrist 0.414131
rhand -8.0939 19.172
rfingers 7.12502
rthumb 17.8185 -10.0316
lclavicle 2.41026e-014 -1.35174e-014
lhumerus -33.8494 4.3974 85.1649
lradius 29.6168
lwrist 3.34252
lhand -5.44336 19.0276
lfingers 7.12502
lthumb 20.3674 47.9795
rfemur -32.7523 4.69799 14.4046
rtibia 46.0645
rfoot -8.86405 -9.50984
rtoes 6.45229
lfemur 0.0179801 -13.247 -34.7749
ltibia 21.8325
lfoot -16.6228 8.14423
ltoes 18.6609
470
root 0.815631 15.7896 36.3492 0.369812 -1.65309 5.85949
lowerback 12.9605 -0.0620778 -9.48396
upperback -4.35598 -1.65516 1.10071
thorax -11.8765 -0.0132615 6.97667
lowerneck -10.5601 -5.49651 -4.75442
upperneck 20.1869 -7.63199 4.1001
head 8.34771 -3.59073 1.35392
rclavicle 1.35174e-014 -3.97569e-015
rhumerus -49.7954 -9.7485 -76.896
rradius 24.9513
rwrist 0.561126
rhand -8.03037 19.1602
rfingers 7.12502
rthumb 17.8796 -10.0379
lclavicle 1.35174e-014 -3.97569e-015
lhumerus -33.694 4.19378 85.2914
lradius 29.9569
lwrist 3.73007
lhand -5.49357 19.0903
lfingers 7.12502
lthumb 20.3191 48.0474
rfemur -33.0084 6.1755 14.0804
rtibia 43.4873
rfoot -8.39852 -10.5874
rtoes 8.82276
lfemur 0.822678 -13.2497 -34.6803
ltibia 20.5987
lfoot -16.4735 8.43287
ltoes 18.6461
